<svg width="11" height="9" viewBox="0 0 11 9" fill="none" xmlns="http://www.w3.org/2000/svg">
    <path d="M3.42647 7.84775C4.92811 7.84775 6.14542 6.12321 6.14542 3.9959C6.14542 1.86858 4.92811 0.144043 3.42647 0.144043C1.92484 0.144043 0.70752 1.86858 0.70752 3.9959C0.70752 6.12321 1.92484 7.84775 3.42647 7.84775Z" fill="#2F211A"/>
    <path d="M1.54004 6.7696C2.02896 7.43708 2.69381 7.84772 3.42643 7.84772C4.92806 7.84772 6.14538 6.1232 6.14538 3.99587C6.14538 2.48464 5.53094 1.1769 4.63676 0.546082C4.90295 0.909484 5.11687 1.34913 5.26122 1.84011C5.3027 1.98121 5.25436 2.13325 5.13879 2.2242C4.95615 2.36796 4.78058 2.52332 4.61475 2.68915C3.80853 3.49536 3.27079 4.48307 3.10057 5.47031C3.02305 5.91998 3.02449 6.34764 3.10115 6.74011C3.14432 6.96116 2.98024 7.1711 2.755 7.17164C2.75346 7.17164 2.75193 7.17164 2.75039 7.17164C2.31549 7.17164 1.90458 7.02677 1.54004 6.7696Z" fill="#4F382D"/>
    <path d="M3.65255 6.67732C3.56094 6.24696 3.48159 5.79871 3.36425 5.37865C3.2531 4.96975 3.117 4.57944 2.95201 4.19633C2.55598 3.28064 2.48695 2.18372 2.94565 1.28109C2.97524 1.22574 3.0452 1.20428 3.10193 1.23314C3.221 1.32511 3.23153 1.74018 3.28984 1.90299C3.43271 2.55621 3.628 3.19456 3.90098 3.79619C4.10779 4.25827 4.23047 4.76109 4.24346 5.26419C4.25478 5.7638 4.17105 6.26829 3.9459 6.71657C3.90705 6.79183 3.81302 6.82213 3.73588 6.78422C3.69082 6.76209 3.66231 6.72236 3.65255 6.67732Z" fill="#4F382D"/>
    <path d="M3.73579 6.78422C3.81294 6.82211 3.90697 6.79183 3.94582 6.71657C4.17094 6.26829 4.25469 5.7638 4.24337 5.26419C4.23039 4.76109 4.10771 4.25827 3.90089 3.79619C3.87866 3.74718 3.85713 3.69786 3.83591 3.64836C3.56977 4.05841 3.36484 4.49133 3.22998 4.93086C3.27826 5.07796 3.32295 5.227 3.36417 5.37865C3.48148 5.79873 3.56084 6.24696 3.65247 6.67732C3.66221 6.72236 3.69072 6.76209 3.73579 6.78422Z" fill="#372222"/>
    <path d="M8.84286 6.91865C10.3469 5.41464 10.7055 3.33475 9.64382 2.27309C8.58216 1.21144 6.50228 1.57004 4.99826 3.07405C3.49425 4.57807 3.13565 6.65796 4.1973 7.71961C5.25896 8.78127 7.33885 8.42266 8.84286 6.91865Z" fill="#2F211A"/>
    <path d="M10.2171 3.41272C10.0846 4.27104 9.61482 5.1924 8.84448 5.96275C7.34024 7.46699 5.26004 7.82564 4.19823 6.76383C3.89072 6.45632 3.7026 6.06331 3.62669 5.62373C3.50042 6.44143 3.68018 7.2019 4.19823 7.71995C5.26004 8.78176 7.34024 8.4231 8.84448 6.91886C9.91311 5.85025 10.4033 4.49107 10.2171 3.41272Z" fill="#4F382D"/>
    <path d="M5.18576 7.05217C5.4253 6.68308 5.68614 6.31001 5.90021 5.93001C6.11075 5.56228 6.2905 5.19006 6.44472 4.80249C6.81218 3.87496 7.539 3.05051 8.5016 2.73662C8.56166 2.71841 8.62631 2.7527 8.64603 2.81322C8.66518 2.96246 8.37913 3.2634 8.30524 3.41975C7.94437 3.98267 7.63107 4.57216 7.39869 5.1906C7.2182 5.66358 6.94938 6.10587 6.60283 6.47081C6.25756 6.8321 5.84161 7.1296 5.36545 7.2874C5.28475 7.31315 5.19685 7.26807 5.1691 7.18672C5.15289 7.13919 5.16082 7.09092 5.18576 7.05217Z" fill="#372222"/>
    <path d="M9.74738 2.17072C9.22977 1.65312 8.46692 1.43192 7.5993 1.54803C7.52041 1.55857 7.46504 1.63107 7.47559 1.70994C7.48614 1.78881 7.55861 1.8443 7.6375 1.83365C8.41407 1.72981 9.09098 1.92186 9.54361 2.37447C10.5475 3.37836 10.1882 5.37125 8.74266 6.81699C7.29694 8.26249 5.30407 8.62186 4.30013 7.61815C3.82062 7.13864 3.63536 6.41737 3.7785 5.58723C3.92481 4.73871 4.39458 3.88225 5.10129 3.17564C5.66418 2.61274 6.32345 2.19863 7.00786 1.97804C7.0836 1.95364 7.12521 1.87245 7.10079 1.79671C7.07639 1.72099 6.99527 1.67933 6.91945 1.70377C6.59256 1.80912 6.27146 1.95577 5.96293 2.13915C5.73758 1.5385 5.40674 1.02732 4.99903 0.653545C4.53268 0.225988 3.98891 0 3.42649 0C2.65207 0 1.9275 0.42233 1.3862 1.18916C0.855655 1.94075 0.563477 2.93754 0.563477 3.99593C0.563477 4.9192 0.793365 5.81915 1.2108 6.52999C1.23764 6.5757 1.28577 6.60114 1.33518 6.60114C1.35997 6.60114 1.38508 6.59474 1.408 6.58127C1.47663 6.54098 1.49959 6.45268 1.45928 6.38407C1.06745 5.7168 0.851659 4.86867 0.851659 3.99593C0.851659 1.95147 2.00671 0.288163 3.42649 0.288163C4.38432 0.288163 5.2734 1.0728 5.7142 2.29677C5.42682 2.49058 5.15259 2.71678 4.89751 2.97184C4.59538 3.27393 4.33408 3.60263 4.1195 3.94686C4.09229 3.87608 4.06324 3.80586 4.03223 3.73657C3.78065 3.18226 3.58387 2.57241 3.43064 1.87216C3.42931 1.86609 3.42759 1.86013 3.42549 1.85427C3.40916 1.80877 3.39479 1.72091 3.3809 1.63595C3.34531 1.41843 3.31171 1.21296 3.18995 1.11909C3.18296 1.11371 3.17551 1.10896 3.16765 1.10495C3.04159 1.04037 2.88492 1.0889 2.81852 1.21312C2.81806 1.214 2.81758 1.21488 2.81714 1.21579C2.59082 1.66123 2.47865 2.16119 2.48374 2.70181C2.48449 2.78091 2.54884 2.84455 2.62781 2.84455H2.62919C2.70875 2.8438 2.77266 2.77869 2.77191 2.6991C2.76751 2.23206 2.8582 1.79965 3.04155 1.41257C3.06497 1.48975 3.08441 1.60868 3.0965 1.68248C3.11247 1.78018 3.12761 1.87271 3.15095 1.94209C3.30831 2.65891 3.51076 3.28492 3.76951 3.855C3.83122 3.99286 3.88467 4.13508 3.92979 4.27841C3.73848 4.64479 3.59991 5.02414 3.52037 5.40411C3.5147 5.38303 3.50915 5.36182 3.50331 5.34089C3.39008 4.92402 3.25301 4.53099 3.08418 4.13909C2.97303 3.88236 2.89005 3.61411 2.83752 3.34179C2.82244 3.26363 2.74678 3.21245 2.66875 3.22759C2.59061 3.24265 2.53948 3.31822 2.55455 3.39636C2.61103 3.68925 2.70024 3.97766 2.8196 4.25338C2.98289 4.6324 3.11556 5.01284 3.22546 5.4175C3.31061 5.72199 3.37671 6.04793 3.44061 6.36314C3.4491 6.40507 3.4576 6.4469 3.46613 6.48867C3.52167 6.92445 3.67782 7.3131 3.92875 7.63258C3.76417 7.67978 3.59597 7.70374 3.42649 7.70374C2.84369 7.70374 2.29328 7.42828 1.83477 6.90712C1.78222 6.84738 1.69117 6.84156 1.63142 6.89411C1.57166 6.94668 1.56584 7.03773 1.61841 7.09746C2.12587 7.67425 2.76801 7.99191 3.42649 7.99191C3.66946 7.99191 3.9098 7.94968 4.14233 7.8664C4.56737 8.26654 5.14058 8.47516 5.79762 8.47514C5.98537 8.47514 6.18006 8.4581 6.37996 8.42363C7.28657 8.26731 8.19801 7.76909 8.94643 7.02076C9.69476 6.27234 10.193 5.36088 10.3493 4.45429C10.5087 3.5293 10.295 2.7183 9.74738 2.17072Z" fill="white"/>
    <path d="M5.77461 5.85929C5.62015 6.13347 5.43726 6.40953 5.2604 6.6765C5.19582 6.77397 5.12906 6.87476 5.06483 6.97373C5.06471 6.9739 4.98229 7.07516 5.03266 7.23321C5.0728 7.35911 5.19358 7.43833 5.31981 7.43833C5.34995 7.43833 5.38058 7.43376 5.41073 7.42413C5.87709 7.2696 6.31322 6.98232 6.70727 6.56998C7.05636 6.20237 7.342 5.74315 7.53352 5.24124C7.74785 4.67085 8.03995 4.10048 8.42651 3.49748C8.42983 3.49228 8.43285 3.48688 8.43548 3.48129C8.45615 3.43756 8.50805 3.36535 8.55825 3.29551C8.68694 3.11646 8.80849 2.94736 8.78893 2.79487C8.78778 2.78595 8.7858 2.77715 8.78301 2.76858C8.73922 2.63411 8.59418 2.55791 8.45973 2.59872C8.45878 2.599 8.45784 2.59929 8.4569 2.5996C7.52609 2.90313 6.72377 3.70679 6.3108 4.74918C6.15836 5.13226 5.98313 5.49508 5.77461 5.85929ZM8.47627 2.89756C8.43817 2.96877 8.36787 3.0666 8.32421 3.12734C8.2665 3.20763 8.21185 3.28366 8.17929 3.34914C7.78395 3.96675 7.48443 4.55261 7.264 5.13921C7.08618 5.60518 6.8214 6.03131 6.49859 6.37124C6.13774 6.74882 5.74122 7.01104 5.32156 7.15011C5.3162 7.15186 5.30801 7.14784 5.3054 7.14018C5.30467 7.13806 5.30369 7.13516 5.30678 7.13026C5.37021 7.03254 5.43651 6.93248 5.50063 6.83566C5.68031 6.56445 5.86612 6.28397 6.02519 6.00163C6.24004 5.62637 6.42105 5.25157 6.57862 4.85557C6.94993 3.91831 7.65578 3.19182 8.47627 2.89756Z" fill="white"/>
</svg>
