<svg width="18" height="15" viewBox="0 0 18 15" fill="none" xmlns="http://www.w3.org/2000/svg">
    <path d="M5.4893 13.4036C8.05402 13.4036 10.1331 10.4582 10.1331 6.82481C10.1331 3.19145 8.05402 0.246033 5.4893 0.246033C2.92458 0.246033 0.845459 3.19145 0.845459 6.82481C0.845459 10.4582 2.92458 13.4036 5.4893 13.4036Z" fill="#966A54"/>
    <path d="M2.26733 11.5622C3.10239 12.7022 4.23791 13.4036 5.48921 13.4036C8.05391 13.4036 10.133 10.4582 10.133 6.82479C10.133 4.24368 9.0836 2.01011 7.55639 0.932709C8.01102 1.55338 8.37639 2.30427 8.62294 3.14284C8.69378 3.38384 8.61122 3.64351 8.41383 3.79886C8.10189 4.04439 7.80202 4.30973 7.51879 4.59296C6.14181 5.96994 5.22337 7.6569 4.93265 9.34306C4.80024 10.1111 4.8027 10.8415 4.93364 11.5118C5.00737 11.8894 4.72713 12.2479 4.34243 12.2489C4.33981 12.2489 4.33718 12.2489 4.33455 12.2489C3.59177 12.2489 2.88995 12.0014 2.26733 11.5622Z" fill="#82563F"/>
    <path d="M5.87542 11.4046C5.71896 10.6695 5.58343 9.90394 5.38302 9.18649C5.19318 8.48811 4.96072 7.82149 4.67893 7.16715C4.00253 5.60319 3.88463 3.72971 4.66807 2.18807C4.7186 2.09352 4.83809 2.05687 4.93499 2.10616C5.13835 2.26325 5.15633 2.97216 5.25593 3.25024C5.49995 4.36591 5.83348 5.45617 6.29973 6.48373C6.65296 7.27295 6.86248 8.13173 6.88467 8.99101C6.904 9.84432 6.76098 10.706 6.37645 11.4716C6.3101 11.6001 6.1495 11.6519 6.01774 11.5872C5.94079 11.5493 5.89209 11.4815 5.87542 11.4046Z" fill="#664545"/>
    <path d="M6.01771 11.5871C6.14947 11.6518 6.31007 11.6001 6.37642 11.4715C6.76092 10.7059 6.90397 9.84425 6.88464 8.99095C6.86245 8.13167 6.65293 7.27289 6.2997 6.48367C6.26173 6.39996 6.22494 6.31572 6.18872 6.23119C5.73415 6.93154 5.38414 7.67094 5.15381 8.42163C5.23627 8.67287 5.3126 8.92742 5.38299 9.18643C5.58337 9.90391 5.71889 10.6695 5.87539 11.4045C5.89203 11.4814 5.94073 11.5493 6.01771 11.5871Z" fill="#372222"/>
    <path d="M14.7403 11.8167C17.3091 9.24793 17.9216 5.69559 16.1083 3.88233C14.2951 2.06907 10.7427 2.68154 8.17394 5.25033C5.60516 7.81912 4.99268 11.3715 6.80594 13.1847C8.6192 14.998 12.1715 14.3855 14.7403 11.8167Z" fill="#966A54"/>
    <path d="M17.0873 5.8288C16.8609 7.29477 16.0586 8.86841 14.7429 10.1841C12.1737 12.7533 8.62085 13.3659 6.80732 11.5523C6.28211 11.0271 5.96081 10.3559 5.83115 9.60509C5.61549 11.0017 5.92251 12.3005 6.80732 13.1853C8.62085 14.9989 12.1737 14.3863 14.7429 11.8171C16.5681 9.99198 17.4054 7.67057 17.0873 5.8288Z" fill="#82563F"/>
    <path d="M8.49383 12.0447C8.90294 11.4143 9.34844 10.7772 9.71408 10.1281C10.0737 9.50008 10.3807 8.86434 10.6441 8.20238C11.2717 6.61821 12.5131 5.21009 14.1571 4.67398C14.2597 4.64287 14.3701 4.70144 14.4038 4.80481C14.4365 5.05969 13.9479 5.57368 13.8217 5.84074C13.2054 6.80217 12.6703 7.80899 12.2734 8.86526C11.9651 9.67308 11.506 10.4285 10.9141 11.0518C10.3244 11.6689 9.61399 12.177 8.80072 12.4465C8.66289 12.4905 8.51276 12.4135 8.46538 12.2745C8.43768 12.1934 8.45123 12.1109 8.49383 12.0447Z" fill="#372222"/>
    <path d="M16.285 3.70748C15.401 2.82346 14.0981 2.44565 12.6162 2.64396C12.4815 2.66197 12.3869 2.78578 12.4049 2.92049C12.4229 3.0552 12.5467 3.14997 12.6815 3.13179C14.0078 2.95442 15.1639 3.28245 15.937 4.05549C17.6516 5.77007 17.0379 9.17384 14.569 11.6431C12.0998 14.1119 8.69607 14.7257 6.98138 13.0114C6.1624 12.1925 5.846 10.9606 6.09047 9.54272C6.34036 8.09348 7.14271 6.6307 8.34973 5.42383C9.31113 4.46243 10.4371 3.75516 11.6061 3.3784C11.7354 3.33673 11.8065 3.19805 11.7648 3.06869C11.7231 2.93936 11.5846 2.86822 11.4551 2.90996C10.8967 3.08989 10.3483 3.34037 9.82138 3.65356C9.43649 2.62768 8.87143 1.75462 8.17509 1.11622C7.37858 0.385977 6.44984 0 5.48926 0C4.16659 0 2.92905 0.72132 2.00453 2.03103C1.09839 3.31471 0.599365 5.01718 0.599365 6.82487C0.599365 8.40176 0.992004 9.93884 1.70496 11.1529C1.7508 11.231 1.833 11.2744 1.91741 11.2744C1.95974 11.2744 2.00263 11.2635 2.04178 11.2405C2.15899 11.1717 2.19821 11.0209 2.12936 10.9037C1.46012 9.76403 1.09157 8.31545 1.09157 6.82487C1.09157 3.33302 3.06435 0.492169 5.48926 0.492169C7.12518 0.492169 8.64369 1.83229 9.39655 3.92278C8.90573 4.25379 8.43735 4.64013 8.00169 5.07576C7.48566 5.59172 7.03937 6.15313 6.67288 6.74105C6.62642 6.62016 6.5768 6.50022 6.52384 6.38189C6.09415 5.43516 5.75805 4.39355 5.49635 3.19756C5.49408 3.18719 5.49113 3.17701 5.48755 3.167C5.45966 3.0893 5.43511 2.93923 5.41139 2.79412C5.35061 2.42261 5.29322 2.07168 5.08526 1.91135C5.07332 1.90216 5.06059 1.89405 5.04716 1.88719C4.83186 1.7769 4.56428 1.85979 4.45087 2.07195C4.45008 2.07346 4.44926 2.07497 4.44851 2.07651C4.06197 2.83731 3.8704 3.6912 3.87909 4.61457C3.88037 4.74967 3.99027 4.85836 4.12514 4.85836H4.12751C4.2634 4.85708 4.37254 4.74586 4.37126 4.60994C4.36375 3.81226 4.51864 3.07371 4.8318 2.41261C4.8718 2.54443 4.90501 2.74755 4.92565 2.8736C4.95292 3.04047 4.97878 3.19851 5.01865 3.317C5.28741 4.54129 5.63319 5.61049 6.07511 6.58416C6.18052 6.81961 6.27181 7.06252 6.34886 7.30732C6.02212 7.93308 5.78545 8.58099 5.64959 9.22996C5.63991 9.19396 5.63043 9.15773 5.62045 9.12199C5.42707 8.40999 5.19296 7.73872 4.90461 7.06937C4.71478 6.63089 4.57304 6.17272 4.48333 5.70762C4.45757 5.57413 4.32834 5.48671 4.19507 5.51257C4.06161 5.5383 3.97429 5.66736 4.00002 5.80082C4.0965 6.30106 4.24886 6.79366 4.45271 7.26456C4.73161 7.91192 4.9582 8.5617 5.14591 9.25283C5.29135 9.77289 5.40423 10.3296 5.51338 10.8679C5.52788 10.9396 5.54239 11.011 5.55696 11.0823C5.65183 11.8266 5.91852 12.4904 6.34709 13.0361C6.06599 13.1167 5.77872 13.1576 5.48926 13.1576C4.49386 13.1576 3.55379 12.6871 2.77068 11.797C2.68093 11.695 2.52541 11.6851 2.42336 11.7748C2.3213 11.8646 2.31136 12.0201 2.40114 12.1221C3.26787 13.1073 4.3646 13.6498 5.48926 13.6498C5.90424 13.6498 6.31473 13.5777 6.71187 13.4354C7.43782 14.1189 8.41684 14.4752 9.53903 14.4751C9.85971 14.4751 10.1922 14.446 10.5336 14.3872C12.0821 14.1202 13.6388 13.2692 14.9171 11.9911C16.1952 10.7129 17.0461 9.15612 17.313 7.60772C17.5854 6.02787 17.2203 4.64272 16.285 3.70748Z" fill="white"/>
    <path d="M9.49965 10.0074C9.23584 10.4757 8.92347 10.9472 8.6214 11.4031C8.51111 11.5696 8.39708 11.7418 8.28737 11.9108C8.28718 11.9111 8.1464 12.084 8.23244 12.354C8.30099 12.569 8.50727 12.7043 8.72287 12.7043C8.77436 12.7043 8.82667 12.6965 8.87815 12.6801C9.67469 12.4161 10.4196 11.9255 11.0926 11.2212C11.6888 10.5933 12.1767 9.80902 12.5038 8.95178C12.8698 7.97758 13.3687 7.00342 14.029 5.97353C14.0346 5.96464 14.0398 5.95542 14.0443 5.94587C14.0796 5.87118 14.1682 5.74786 14.254 5.62857C14.4738 5.32276 14.6814 5.03395 14.648 4.77349C14.646 4.75827 14.6426 4.74324 14.6379 4.7286C14.5631 4.49893 14.3153 4.36878 14.0857 4.43848C14.0841 4.43897 14.0825 4.43946 14.0809 4.43999C12.4911 4.95841 11.1208 6.33102 10.4154 8.11137C10.1551 8.76565 9.8558 9.38534 9.49965 10.0074ZM14.114 4.94889C14.0489 5.07051 13.9288 5.23761 13.8543 5.34134C13.7557 5.47847 13.6623 5.60832 13.6067 5.72016C12.9315 6.77502 12.4199 7.77563 12.0435 8.77753C11.7397 9.57337 11.2875 10.3012 10.7362 10.8818C10.1199 11.5267 9.44261 11.9745 8.72586 12.212C8.7167 12.215 8.70272 12.2082 8.69826 12.1951C8.69701 12.1915 8.69534 12.1865 8.70062 12.1781C8.80894 12.0112 8.92219 11.8403 9.0317 11.675C9.33859 11.2118 9.65595 10.7327 9.92763 10.2505C10.2946 9.60957 10.6037 8.96943 10.8729 8.29307C11.507 6.69229 12.7126 5.45147 14.114 4.94889Z" fill="white"/>
</svg>
